<svg xmlns="http://www.w3.org/2000/svg" xmlns:svg="http://www.w3.org/2000/svg" id="svg3745" x="0" y="0" enable-background="new 0 0 32 32" version="1.1" viewBox="0 0 32 40" xml:space="preserve"><metadata id="metadata3751"/><g id="g3735"><rect id="rect3733" width="32" height="32" fill="none"/></g><g id="g3739" transform="matrix(1.3201829,0,0,1.1802935,-4.5568897,1.014675)"><path id="path3737" d="M 25,1 H 7 C 5.897,1 5,1.897 5,3 v 26 c 0,1.103 0.897,2 2,2 h 15 c 2.757,0 5,-2.243 5,-5 V 3 C 27,1.897 26.103,1 25,1 Z M 14,25 h -1 v 1 c 0,0.553 -0.448,1 -1,1 -0.552,0 -1,-0.447 -1,-1 V 25 H 10 C 9.448,25 9,24.553 9,24 9,23.447 9.448,23 10,23 h 1 v -1 c 0,-0.553 0.448,-1 1,-1 0.552,0 1,0.447 1,1 v 1 h 1 c 0.552,0 1,0.447 1,1 0,0.553 -0.448,1 -1,1 z m 5.92,1.38 C 19.87,26.5 19.8,26.609 19.71,26.71 19.52,26.899 19.27,27 19,27 18.73,27 18.48,26.899 18.29,26.71 18.2,26.609 18.13,26.5 18.08,26.38 18.03,26.26 18,26.13 18,26 c 0,-0.13 0.03,-0.26 0.08,-0.38 0.05,-0.13 0.12,-0.23 0.21,-0.33 0.1,-0.09 0.21,-0.16 0.33,-0.21 0.24,-0.101 0.52,-0.101 0.76,0 0.12,0.05 0.23,0.12 0.33,0.21 0.09,0.1 0.16,0.2 0.21,0.33 0.05,0.12 0.08,0.25 0.08,0.38 0,0.13 -0.03,0.26 -0.08,0.38 z m 3,-4 C 22.87,22.5 22.8,22.609 22.71,22.71 22.52,22.899 22.27,23 22,23 21.87,23 21.74,22.97 21.62,22.92 21.5,22.87 21.39,22.8 21.29,22.71 21.2,22.609 21.13,22.5 21.08,22.38 21.03,22.26 21,22.13 21,22 c 0,-0.26 0.11,-0.521 0.29,-0.71 0.28,-0.28 0.73,-0.37 1.09,-0.21 0.12,0.05 0.23,0.12 0.33,0.21 0.18,0.189 0.29,0.45 0.29,0.71 0,0.13 -0.03,0.26 -0.08,0.38 z M 23,16 c 0,1.103 -0.897,2 -2,2 H 11 C 9.897,18 9,17.103 9,16 V 6 C 9,4.897 9.897,4 11,4 h 10 c 1.103,0 2,0.897 2,2 z"/></g></svg>