<svg xmlns="http://www.w3.org/2000/svg" xmlns:xlink="http://www.w3.org/1999/xlink" width="100" height="100" x="0" y="0" fill="#000" version="1.1" viewBox="0 0 100 100"><path fill="#000" stroke="none" stroke-dasharray="none" stroke-linecap="inherit" stroke-linejoin="inherit" stroke-width="1" d="M550,100 l250,350 l-150,0 l0,250 l-250,-350 l150,0 Z M600,-100 c-275,0,-500,225,-500,500 c0,275,225,500,500,500 c275,0,500,-225,500,-500 c0,-275,-225,-500,-500,-500 Z M210,856 l-160,259 l375,200 l175,-315 c-150,0,-306,-73,-390,-144 Z M990,856 c-84,71,-240,144,-390,144 l175,315 l375,-150 Z M990,856" transform="matrix(0.05,0.0,0.0,-0.05,20.0,80.0)"/></svg>