<svg xmlns="http://www.w3.org/2000/svg" xmlns:xlink="http://www.w3.org/1999/xlink" width="100" height="100" x="0" y="0" fill="#000" version="1.1" viewBox="0 0 23 27" style="enable-background:new 0 0 23 27" xml:space="preserve"><g><path d="M14,26c0,0.553,0.447,1,1,1h5c0.553,0,1-0.447,1-1v-6h-7V26z"/><path d="M21,11h2V8c0-1.027-0.778-1.865-1.776-1.977C20.413,7.215,19.047,8,17.5,8c-1.547,0-2.913-0.785-3.724-1.977 C12.778,6.135,12,6.973,12,8v3h2v1h-2v3c0,1.104,0.895,2,2,2v2h7v-2c1.104,0,2-0.896,2-2v-3h-2V11z"/><circle cx="17.5" cy="3.5" r="3.5"/><path d="M2,26c0,0.553,0.447,1,1,1h5c0.553,0,1-0.447,1-1v-6H2V26z"/><path d="M9,11h2V8c0-1.027-0.778-1.865-1.776-1.977C8.413,7.215,7.047,8,5.5,8C3.953,8,2.587,7.215,1.776,6.023 C0.778,6.135,0,6.973,0,8v3h2v1H0v3c0,1.104,0.895,2,2,2v2h7v-2c1.104,0,2-0.896,2-2v-3H9V11z"/><circle cx="5.5" cy="3.5" r="3.5"/></g></svg>