<svg xmlns="http://www.w3.org/2000/svg" xmlns:xlink="http://www.w3.org/1999/xlink" width="100" height="100" x="0" y="0" fill="#000" version="1.1" viewBox="0 0 100 100" style="enable-background:new 0 0 100 100" xml:space="preserve"><polygon points="7.3 32.8 7.3 67.2 28.9 67.2 53.1 87 53.1 13 28.9 32.8"/><path d="M92.1,37.2c-0.7-0.7-1.8-0.7-2.6,0L79.4,47.4L69.2,37.2c-0.7-0.7-1.8-0.7-2.6,0c-0.7,0.7-0.7,1.8,0,2.6L76.8,50L66.6,60.2 c-0.7,0.7-0.7,1.8,0,2.6c0.4,0.4,0.9,0.6,1.3,0.6s0.9-0.2,1.3-0.6l10.2-10.2l10.2,10.2c0.4,0.4,0.9,0.6,1.3,0.6 c0.4,0,0.9-0.2,1.3-0.6c0.7-0.7,0.7-1.8,0-2.6L82,50l10.2-10.2C92.9,39.1,92.9,38,92.1,37.2z"/></svg>